# Blender 4.3.1
# www.blender.org
mtllib field.mtl
o vector.003
v 4.036888 0.000000 3.511771
v 4.036888 -0.789743 4.301514
v 4.036888 0.000000 5.091257
v 4.036888 0.789743 4.301514
v 8.027328 0.000000 4.301514
v -5.601621 -0.000001 4.684128
v 4.565428 0.000000 4.684128
v -5.601621 0.382614 4.301514
v 4.565428 0.382615 4.301514
v -5.601621 -0.382615 4.301514
v 4.565428 -0.382615 4.301514
v -5.601621 -0.000001 3.918899
v 4.565428 0.000000 3.918899
v 4.036888 0.000000 -2.093817
v 4.036888 -0.789743 -1.304074
v 4.036888 0.000000 -0.514331
v 4.036888 0.789743 -1.304074
v 8.027328 0.000000 -1.304074
v -5.601621 -0.000001 -0.921460
v 4.565428 0.000000 -0.921460
v -5.601621 0.382614 -1.304074
v 4.565428 0.382615 -1.304074
v -5.601621 -0.382615 -1.304074
v 4.565428 -0.382615 -1.304074
v -5.601621 -0.000001 -1.686689
v 4.565428 0.000000 -1.686689
v 4.036888 0.000000 -4.843813
v 4.036888 -0.789743 -4.054070
v 4.036888 0.000000 -3.264327
v 4.036888 0.789743 -4.054070
v 8.027328 0.000000 -4.054070
v -5.601621 -0.000001 -3.671455
v 4.565428 0.000000 -3.671455
v -5.601621 0.382614 -4.054070
v 4.565428 0.382615 -4.054070
v -5.601621 -0.382615 -4.054070
v 4.565428 -0.382615 -4.054070
v -5.601621 -0.000001 -4.436685
v 4.565428 0.000000 -4.436685
v 4.036888 0.000000 0.761776
v 4.036888 -0.789743 1.551519
v 4.036888 0.000000 2.341262
v 4.036888 0.789743 1.551519
v 8.027328 0.000000 1.551519
v -5.601621 -0.000001 1.934134
v 4.565428 0.000000 1.934134
v -5.601621 0.382614 1.551519
v 4.565428 0.382615 1.551519
v -5.601621 -0.382615 1.551519
v 4.565428 -0.382615 1.551519
v -5.601621 -0.000001 1.168904
v 4.565428 0.000000 1.168904
vn 0.1386 -0.7003 -0.7003
vn 0.1386 -0.7003 0.7003
vn -1.0000 -0.0000 -0.0000
vn 0.1386 0.7003 0.7003
vn 0.1386 0.7003 -0.7003
vn -0.0000 0.7071 0.7071
vn -0.0000 0.7071 -0.7071
vn -0.0000 -0.7071 -0.7071
vn -0.0000 -0.7071 0.7071
vn 1.0000 -0.0000 -0.0000
vt 0.250000 0.490000
vt 0.250000 0.250000
vt 0.490000 0.250000
vt 0.250000 0.010000
vt 0.750000 0.490000
vt 0.990000 0.250000
vt 0.750000 0.010000
vt 0.510000 0.250000
vt 0.010000 0.250000
vt 0.375000 0.000000
vt 0.625000 0.000000
vt 0.625000 0.250000
vt 0.375000 0.250000
vt 0.625000 0.500000
vt 0.375000 0.500000
vt 0.625000 0.750000
vt 0.375000 0.750000
vt 0.625000 1.000000
vt 0.375000 1.000000
vt 0.125000 0.500000
vt 0.125000 0.750000
vt 0.875000 0.500000
vt 0.875000 0.750000
s 0
f 1/1/1 5/2/1 2/3/1
f 2/3/2 5/2/2 3/4/2
f 1/5/3 2/6/3 3/7/3 4/8/3
f 3/4/4 5/2/4 4/9/4
f 4/9/5 5/2/5 1/1/5
f 6/10/6 7/11/6 9/12/6 8/13/6
f 8/13/7 9/12/7 13/14/7 12/15/7
f 12/15/8 13/14/8 11/16/8 10/17/8
f 10/17/9 11/16/9 7/18/9 6/19/9
f 8/20/3 12/15/3 10/17/3 6/21/3
f 13/14/10 9/22/10 7/23/10 11/16/10
f 14/1/1 18/2/1 15/3/1
f 15/3/2 18/2/2 16/4/2
f 14/5/3 15/6/3 16/7/3 17/8/3
f 16/4/4 18/2/4 17/9/4
f 17/9/5 18/2/5 14/1/5
f 19/10/6 20/11/6 22/12/6 21/13/6
f 21/13/7 22/12/7 26/14/7 25/15/7
f 25/15/8 26/14/8 24/16/8 23/17/8
f 23/17/9 24/16/9 20/18/9 19/19/9
f 21/20/3 25/15/3 23/17/3 19/21/3
f 26/14/10 22/22/10 20/23/10 24/16/10
f 27/1/1 31/2/1 28/3/1
f 28/3/2 31/2/2 29/4/2
f 27/5/3 28/6/3 29/7/3 30/8/3
f 29/4/4 31/2/4 30/9/4
f 30/9/5 31/2/5 27/1/5
f 32/10/6 33/11/6 35/12/6 34/13/6
f 34/13/7 35/12/7 39/14/7 38/15/7
f 38/15/8 39/14/8 37/16/8 36/17/8
f 36/17/9 37/16/9 33/18/9 32/19/9
f 34/20/3 38/15/3 36/17/3 32/21/3
f 39/14/10 35/22/10 33/23/10 37/16/10
f 40/1/1 44/2/1 41/3/1
f 41/3/2 44/2/2 42/4/2
f 40/5/3 41/6/3 42/7/3 43/8/3
f 42/4/4 44/2/4 43/9/4
f 43/9/5 44/2/5 40/1/5
f 45/10/6 46/11/6 48/12/6 47/13/6
f 47/13/7 48/12/7 52/14/7 51/15/7
f 51/15/8 52/14/8 50/16/8 49/17/8
f 49/17/9 50/16/9 46/18/9 45/19/9
f 47/20/3 51/15/3 49/17/3 45/21/3
f 52/14/10 48/22/10 46/23/10 50/16/10
